<svg width="23" height="21" viewBox="0 0 23 21" fill="none" xmlns="http://www.w3.org/2000/svg">
<path d="M5.20912 0.0716631C5.17777 0.0713814 5.14685 0.0787187 5.11913 0.0930139C5.09141 0.107309 5.06777 0.128113 5.05034 0.153551C5.0329 0.178989 5.02223 0.208262 5.01927 0.238732C5.01631 0.269202 5.02116 0.299912 5.03339 0.328094L5.14204 0.57853L7.06464 4.95538C7.0777 4.98515 7.09857 5.01104 7.12513 5.03044C7.15169 5.04984 7.18302 5.06207 7.21595 5.06591C7.24889 5.06974 7.28229 5.06504 7.31277 5.05228C7.34326 5.03951 7.36977 5.01914 7.38964 4.9932L10.9382 0.366836C10.9592 0.339427 10.9721 0.306836 10.9752 0.272713C10.9784 0.238591 10.9717 0.204286 10.956 0.173643C10.9403 0.142999 10.9162 0.117227 10.8864 0.0992155C10.8565 0.0812036 10.8221 0.0716631 10.787 0.0716631H5.20912ZM19.296 1.27357L17.3461 5.71822C17.3338 5.74628 17.3288 5.77687 17.3317 5.80726C17.3345 5.83764 17.345 5.86687 17.3622 5.89232C17.3794 5.91778 17.4028 5.93867 17.4304 5.95311C17.4579 5.96756 17.4886 5.97512 17.5199 5.97511H22.291C22.3246 5.97513 22.3577 5.96635 22.3868 5.94968C22.4158 5.93302 22.4398 5.90908 22.4562 5.88034C22.4725 5.85159 22.4807 5.8191 22.4799 5.78622C22.4791 5.75333 22.4693 5.72126 22.4516 5.69332L19.63 1.24912C19.6118 1.22051 19.5859 1.19732 19.5551 1.18207C19.5243 1.16682 19.4899 1.16008 19.4555 1.1626C19.421 1.16512 19.388 1.17679 19.3599 1.19636C19.3318 1.21592 19.3097 1.24262 19.296 1.27357ZM3.47453 1.25097L0.653931 5.69332C0.63616 5.72126 0.626364 5.75333 0.625558 5.78622C0.624752 5.8191 0.632965 5.85159 0.649346 5.88034C0.665727 5.90908 0.689681 5.93302 0.718727 5.94968C0.747772 5.96635 0.780852 5.97513 0.814541 5.97511H5.58561C5.61688 5.97508 5.64765 5.96747 5.67516 5.95296C5.70267 5.93846 5.72607 5.91751 5.74325 5.892C5.76044 5.8665 5.77087 5.83723 5.77361 5.80682C5.77635 5.77641 5.77132 5.74581 5.75897 5.71776L3.8052 1.27541C3.79122 1.24524 3.76919 1.21929 3.7414 1.20029C3.71362 1.1813 3.68111 1.16996 3.64729 1.16745C3.61346 1.16495 3.57958 1.17139 3.54918 1.18608C3.51878 1.20078 3.493 1.22319 3.47453 1.25097ZM12.1106 0.0716631C12.0935 0.0715551 12.0767 0.0761202 12.0622 0.0848423C12.0476 0.0935644 12.0358 0.106096 12.0281 0.121019C12.0205 0.135942 12.0172 0.152661 12.0188 0.169287C12.0203 0.185913 12.0266 0.201781 12.0369 0.215099L15.8122 5.12511C15.8219 5.13772 15.8347 5.14763 15.8495 5.15383C15.8644 5.16004 15.8806 5.16232 15.8966 5.16045C15.9126 5.15858 15.9278 5.15262 15.9407 5.14318C15.9536 5.13373 15.9637 5.12114 15.97 5.10666L17.9578 0.578991L18.1184 0.194344C18.1241 0.181141 18.1264 0.166796 18.1251 0.152536C18.1238 0.138277 18.1191 0.124528 18.1112 0.112468C18.1033 0.100408 18.0925 0.0903955 18.0798 0.083289C18.067 0.0761824 18.0527 0.0721932 18.0381 0.0716631H12.1106ZM10.7492 19.2579L6.52471 7.56674C6.5123 7.53279 6.48942 7.50343 6.45922 7.4827C6.42902 7.46196 6.39298 7.45088 6.35606 7.45097H0.673299C0.640379 7.45088 0.608095 7.45982 0.580126 7.47677C0.552156 7.49372 0.529625 7.518 0.5151 7.54684C0.500575 7.57569 0.494641 7.60793 0.497973 7.63991C0.501305 7.67188 0.513769 7.7023 0.533946 7.7277L10.7374 20.6327C10.772 20.6764 10.8212 20.7067 10.8765 20.7183C10.9318 20.7299 10.9894 20.7219 11.0393 20.6959C11.0894 20.6702 11.1284 20.6277 11.1491 20.5762C11.1698 20.5247 11.1709 20.4677 11.1522 20.4155L10.7492 19.2579ZM22.4313 7.45097H16.7485C16.7118 7.45097 16.6759 7.4621 16.646 7.48284C16.616 7.50358 16.5934 7.5329 16.5813 7.56674L11.9425 20.3957C11.923 20.4495 11.9238 20.5084 11.9447 20.5617C11.9657 20.6151 12.0054 20.6594 12.0568 20.6867C12.1082 20.7139 12.1678 20.7223 12.225 20.7106C12.2821 20.6989 12.3332 20.6677 12.369 20.6226L22.5706 7.7277C22.5908 7.7023 22.6032 7.67188 22.6066 7.63991C22.6099 7.60793 22.604 7.57569 22.5895 7.54684C22.5749 7.518 22.5524 7.49372 22.5244 7.47677C22.4965 7.45982 22.4642 7.45088 22.4313 7.45097ZM11.7034 2.23611L14.3488 5.67994C14.3698 5.70735 14.3827 5.73994 14.3858 5.77406C14.389 5.80818 14.3823 5.84249 14.3666 5.87313C14.3509 5.90378 14.3268 5.92955 14.297 5.94756C14.2671 5.96557 14.2327 5.97511 14.1976 5.97511H8.90693C8.87184 5.97511 8.83744 5.96557 8.80759 5.94756C8.77774 5.92955 8.75362 5.90378 8.73793 5.87313C8.72223 5.84249 8.71559 5.80818 8.71874 5.77406C8.72189 5.73994 8.73471 5.70735 8.75577 5.67994L11.4011 2.23611C11.4187 2.2132 11.4415 2.1946 11.4678 2.18179C11.494 2.16898 11.5229 2.16231 11.5523 2.16231C11.5816 2.16231 11.6105 2.16898 11.6368 2.18179C11.663 2.1946 11.6858 2.2132 11.7034 2.23611ZM11.3728 16.5478L8.17474 7.6968C8.1647 7.66899 8.16163 7.63923 8.16579 7.61002C8.16996 7.58081 8.18123 7.553 8.19868 7.52893C8.21612 7.50485 8.23922 7.48521 8.26604 7.47164C8.29286 7.45808 8.32262 7.45099 8.35283 7.45097H14.7517C14.7819 7.45099 14.8117 7.45808 14.8385 7.47164C14.8653 7.48521 14.8884 7.50485 14.9059 7.52893C14.9233 7.553 14.9346 7.58081 14.9388 7.61002C14.9429 7.63923 14.9399 7.66899 14.9298 7.6968L11.7304 16.5478C11.7173 16.5838 11.6932 16.6149 11.6613 16.6368C11.6294 16.6588 11.5913 16.6707 11.5523 16.6707C11.5132 16.6707 11.4751 16.6588 11.4433 16.6368C11.4114 16.6149 11.3872 16.5838 11.3742 16.5478H11.3728Z" fill="white"/>
</svg>
