<svg width="19" height="23" viewBox="0 0 19 23" fill="none" xmlns="http://www.w3.org/2000/svg">
<path d="M14.5033 15.583L14.6809 15.7616L14.8605 15.583C15.07 15.3662 15.3206 15.1933 15.5976 15.0743C15.8746 14.9554 16.1726 14.8928 16.474 14.8902C16.7755 14.8876 17.0745 14.9451 17.3535 15.0593C17.6325 15.1735 17.886 15.3422 18.0992 15.5554C18.3123 15.7686 18.4809 16.0221 18.595 16.3012C18.7091 16.5802 18.7665 16.8792 18.7638 17.1807C18.7612 17.4822 18.6985 17.7801 18.5794 18.0571C18.4604 18.3341 18.2874 18.5846 18.0705 18.794L14.6819 22.1836L11.2923 18.794C10.8665 18.3682 10.6273 17.7907 10.6273 17.1885C10.6273 16.5863 10.8665 16.0088 11.2923 15.583C11.7181 15.1572 12.2956 14.918 12.8978 14.918C13.5 14.918 14.0775 15.1572 14.5033 15.583ZM8.60905 13.9089V21.9818H0.536133C0.536157 19.8844 1.35244 17.8694 2.81216 16.3634C4.27188 14.8573 6.26042 13.9785 8.35677 13.9129L8.60905 13.9089ZM8.60905 0.790405C11.9543 0.790405 14.6637 3.49988 14.6637 6.84509C14.6637 10.1903 11.9543 12.8998 8.60905 12.8998C5.26383 12.8998 2.55436 10.1903 2.55436 6.84509C2.55436 3.49988 5.26383 0.790405 8.60905 0.790405Z" fill="white"/>
</svg>
