<svg width="38" height="26" viewBox="0 0 38 26" fill="none" xmlns="http://www.w3.org/2000/svg">
<path d="M37.8805 12.4938C37.8258 12.3703 36.5023 9.43437 33.5601 6.49219C29.6398 2.57188 24.6883 0.5 19.2383 0.5C13.7883 0.5 8.8367 2.57188 4.91639 6.49219C1.9742 9.43437 0.644516 12.375 0.596079 12.4938C0.525006 12.6536 0.488281 12.8266 0.488281 13.0016C0.488281 13.1765 0.525006 13.3495 0.596079 13.5094C0.650766 13.6328 1.9742 16.5672 4.91639 19.5094C8.8367 23.4281 13.7883 25.5 19.2383 25.5C24.6883 25.5 29.6398 23.4281 33.5601 19.5094C36.5023 16.5672 37.8258 13.6328 37.8805 13.5094C37.9515 13.3495 37.9883 13.1765 37.9883 13.0016C37.9883 12.8266 37.9515 12.6536 37.8805 12.4938ZM19.2383 23C14.4289 23 10.2273 21.2516 6.7492 17.8047C5.32209 16.3855 4.10793 14.7671 3.14452 13C4.10767 11.2327 5.32185 9.61434 6.7492 8.19531C10.2273 4.74844 14.4289 3 19.2383 3C24.0476 3 28.2492 4.74844 31.7273 8.19531C33.1572 9.614 34.374 11.2324 35.3398 13C34.2133 15.1031 29.3055 23 19.2383 23ZM19.2383 5.5C17.7549 5.5 16.3049 5.93987 15.0715 6.76398C13.8381 7.58809 12.8768 8.75943 12.3092 10.1299C11.7415 11.5003 11.593 13.0083 11.8824 14.4632C12.1718 15.918 12.8861 17.2544 13.935 18.3033C14.9839 19.3522 16.3202 20.0665 17.7751 20.3559C19.2299 20.6453 20.7379 20.4968 22.1084 19.9291C23.4788 19.3614 24.6502 18.4001 25.4743 17.1668C26.2984 15.9334 26.7383 14.4834 26.7383 13C26.7362 11.0115 25.9454 9.10506 24.5393 7.69898C23.1332 6.29291 21.2268 5.50207 19.2383 5.5ZM19.2383 18C18.2494 18 17.2827 17.7068 16.4604 17.1573C15.6382 16.6079 14.9973 15.827 14.6189 14.9134C14.2404 13.9998 14.1414 12.9945 14.3343 12.0245C14.5273 11.0546 15.0035 10.1637 15.7027 9.46447C16.402 8.7652 17.2929 8.289 18.2628 8.09607C19.2327 7.90315 20.2381 8.00216 21.1517 8.3806C22.0653 8.75904 22.8462 9.3999 23.3956 10.2221C23.945 11.0444 24.2383 12.0111 24.2383 13C24.2383 14.3261 23.7115 15.5979 22.7738 16.5355C21.8361 17.4732 20.5643 18 19.2383 18Z" fill="white"/>
</svg>
