<svg width="31" height="31" viewBox="0 0 31 31" fill="none" xmlns="http://www.w3.org/2000/svg">
<path d="M8.01483 1.55092C9.2975 0.551917 10.9748 0 12.6414 0C13.6388 0 14.4451 0.34225 15.0572 0.886458C15.2221 1.03292 15.3686 1.19171 15.4996 1.35512C15.6307 1.19171 15.7771 1.03292 15.9421 0.886458C16.5541 0.34225 17.3604 0 18.3579 0C20.0244 0 21.7033 0.551917 22.9829 1.55092C23.9819 2.32638 24.7635 3.39783 25.0703 4.69129C25.7178 4.79921 26.2928 5.12913 26.7584 5.56542C27.4984 6.26071 28.0272 7.26587 28.3587 8.30033C28.6963 9.35021 28.8643 10.5296 28.8135 11.6627C28.7872 12.2424 28.7025 12.8344 28.5406 13.4002L28.6408 13.4464C29.2112 13.7147 29.6737 14.1355 30.0206 14.6952C30.6758 15.7512 30.907 17.2713 30.907 19.2092C30.907 21.4369 30.0545 22.9492 28.9599 23.8881C28.3898 24.3771 27.7225 24.7396 27.002 24.9519C26.7406 26.1566 26.2034 27.2843 25.4326 28.2464C24.318 29.6401 22.5851 30.8179 20.2572 30.8179C18.3918 30.8179 16.9226 29.785 15.9791 28.7983C15.8118 28.622 15.6523 28.4384 15.5012 28.248C15.3495 28.4379 15.1895 28.621 15.0217 28.7968C14.0782 29.7865 12.609 30.8179 10.7436 30.8179C8.41412 30.8179 6.68129 29.6401 5.56821 28.2464C4.79627 27.2846 4.25799 26.1569 3.99571 24.9519C3.27576 24.7395 2.60899 24.3769 2.03933 23.8881C0.94475 22.9477 0.09375 21.4369 0.09375 19.2092C0.09375 17.2713 0.325 15.7512 0.978667 14.6952C1.32547 14.1202 1.84277 13.6676 2.45867 13.4002C2.30027 12.8336 2.20869 12.2505 2.18579 11.6627C2.13492 10.5296 2.30296 9.35021 2.64058 8.30033C2.97204 7.26742 3.49929 6.26071 4.24083 5.56542C4.70461 5.11337 5.29213 4.80914 5.92896 4.69129C6.23729 3.39629 7.01737 2.32638 8.01483 1.55092ZM9.43625 3.37471C8.5945 4.02992 8.10117 4.9025 8.10117 5.90767C8.10103 6.09078 8.0574 6.27124 7.97388 6.43419C7.89035 6.59715 7.76932 6.73793 7.62074 6.84496C7.47217 6.95199 7.3003 7.0222 7.11928 7.04982C6.93826 7.07743 6.75327 7.06166 6.57954 7.00379C6.36833 6.93287 6.14479 6.94983 5.82412 7.252C5.46646 7.58654 5.10417 8.19242 4.84208 9.00642C4.57991 9.83098 4.46306 10.6948 4.49675 11.5594C4.53529 12.4166 4.73879 13.1288 5.05946 13.6098C5.11251 13.6895 5.15549 13.7755 5.18742 13.8657H6.8555C7.96545 13.8655 9.03435 14.2854 9.84742 15.041C10.6605 15.7965 11.1575 16.8318 11.2385 17.9388C11.9026 18.2038 12.454 18.6914 12.7982 19.3181C13.1425 19.9448 13.2582 20.6717 13.1256 21.3744C12.993 22.077 12.6204 22.7117 12.0714 23.1699C11.5224 23.628 10.8312 23.8811 10.1162 23.8859C9.4012 23.8906 8.70675 23.6467 8.15174 23.1959C7.59673 22.745 7.21566 22.1153 7.07376 21.4145C6.93185 20.7137 7.03794 19.9853 7.37385 19.3541C7.70976 18.7229 8.25462 18.228 8.91517 17.9542C8.84194 17.4604 8.59364 17.0093 8.21554 16.6833C7.83744 16.3573 7.35475 16.178 6.8555 16.1782H2.80863C2.57738 16.7147 2.40625 17.6413 2.40625 19.2092C2.40625 20.7832 2.97821 21.6465 3.54554 22.1337C4.16683 22.6656 4.84979 22.8043 5.04713 22.8043C5.35378 22.8043 5.64788 22.9262 5.86472 23.143C6.08156 23.3598 6.20338 23.6539 6.20338 23.9606C6.20338 24.6081 6.56104 25.7844 7.37504 26.8019C8.15821 27.7839 9.27437 28.5054 10.7436 28.5054C11.7256 28.5054 12.629 27.9535 13.349 27.2012C13.6974 26.8342 13.9688 26.4535 14.1476 26.1451C14.2153 26.0298 14.2745 25.9098 14.3249 25.7859L14.3341 25.7643V11.1678H12.9528C12.6845 11.8312 12.1938 12.3805 11.5648 12.7217C10.9359 13.063 10.2079 13.1748 9.5055 13.0381C8.80313 12.9015 8.17016 12.5248 7.71508 11.9726C7.26 11.4204 7.01113 10.7271 7.01113 10.0116C7.01113 9.29604 7.26 8.60277 7.71508 8.05059C8.17016 7.49842 8.80313 7.12171 9.5055 6.98502C10.2079 6.84834 10.9359 6.9602 11.5648 7.30143C12.1938 7.64266 12.6845 8.19201 12.9528 8.85533H14.3341V4.94258L14.3295 4.85471C14.3031 4.3799 14.2097 3.91121 14.052 3.46258C13.9132 3.09258 13.7329 2.80429 13.5201 2.61467C13.3305 2.44508 13.0684 2.3125 12.6414 2.3125C11.4605 2.3125 10.2903 2.71025 9.43471 3.37625L9.43625 3.37471ZM16.6667 23.1157V25.7643L16.6744 25.7859C16.7052 25.8676 16.7638 25.9894 16.8532 26.1451C17.0305 26.4535 17.3018 26.8342 17.6518 27.2012C18.3702 27.9535 19.2752 28.5054 20.2572 28.5054C21.7249 28.5054 22.841 27.7839 23.6257 26.8019C24.4382 25.7844 24.7974 24.6065 24.7974 23.9606C24.7974 23.6539 24.9192 23.3598 25.1361 23.143C25.3529 22.9262 25.647 22.8043 25.9537 22.8043C26.151 22.8043 26.8324 22.6656 27.4552 22.1337C28.021 21.6465 28.593 20.7832 28.593 19.2092C28.593 17.3468 28.3494 16.3879 28.055 15.9146C27.9628 15.7509 27.823 15.6192 27.6541 15.5369C27.4984 15.4629 27.2641 15.4074 26.9018 15.4074C26.6925 15.4074 26.4872 15.3506 26.3077 15.243C26.1281 15.1355 25.9812 14.9812 25.8824 14.7967C25.7837 14.6122 25.7369 14.4044 25.747 14.1954C25.7571 13.9863 25.8237 13.784 25.9398 13.6098C26.2605 13.1273 26.464 12.4166 26.504 11.5594C26.5372 10.6947 26.4198 9.83089 26.1572 9.00642C25.8951 8.19242 25.5328 7.58808 25.1767 7.252C24.8545 6.94983 24.6309 6.93287 24.4213 7.00379C24.2474 7.06196 24.0623 7.07796 23.881 7.0505C23.6998 7.02303 23.5277 6.95287 23.379 6.8458C23.2302 6.73874 23.109 6.59784 23.0254 6.43473C22.9418 6.27161 22.8981 6.09096 22.8981 5.90767C22.8981 4.9025 22.4047 4.02992 21.563 3.37471C20.7105 2.71025 19.5388 2.31096 18.3563 2.31096C17.9308 2.31096 17.6703 2.44508 17.4791 2.61312C17.2378 2.84983 17.056 3.14043 16.9488 3.46104C16.7759 3.93656 16.6806 4.4368 16.6667 4.94258V20.8032H17.6472C18.1991 20.8032 18.7285 20.584 19.1188 20.1937C19.5091 19.8034 19.7284 19.274 19.7284 18.722V15.9547C19.0651 15.6864 18.5157 15.1957 18.1745 14.5668C17.8333 13.9378 17.7214 13.2098 17.8581 12.5074C17.9948 11.805 18.3715 11.1721 18.9237 10.717C19.4759 10.2619 20.1691 10.013 20.8847 10.013C21.6002 10.013 22.2935 10.2619 22.8457 10.717C23.3978 11.1721 23.7745 11.805 23.9112 12.5074C24.0479 13.2098 23.936 13.9378 23.5948 14.5668C23.2536 15.1957 22.7042 15.6864 22.0409 15.9547V18.722C22.0409 19.8873 21.578 21.0049 20.754 21.8288C19.93 22.6528 18.8125 23.1157 17.6472 23.1157H16.6667ZM10.093 9.24075C9.88856 9.24075 9.6925 9.32196 9.54794 9.46652C9.40338 9.61108 9.32217 9.80715 9.32217 10.0116C9.32217 10.216 9.40338 10.4121 9.54794 10.5566C9.6925 10.7012 9.88856 10.7824 10.093 10.7824C10.2974 10.7824 10.4935 10.7012 10.6381 10.5566C10.7826 10.4121 10.8638 10.216 10.8638 10.0116C10.8638 9.80715 10.7826 9.61108 10.6381 9.46652C10.4935 9.32196 10.2974 9.24075 10.093 9.24075ZM9.32217 20.8032C9.32217 21.0077 9.40338 21.2038 9.54794 21.3483C9.6925 21.4929 9.88856 21.5741 10.093 21.5741C10.2974 21.5741 10.4935 21.4929 10.6381 21.3483C10.7826 21.2038 10.8638 21.0077 10.8638 20.8032C10.8638 20.5988 10.7826 20.4027 10.6381 20.2582C10.4935 20.1136 10.2974 20.0324 10.093 20.0324C9.88856 20.0324 9.6925 20.1136 9.54794 20.2582C9.40338 20.4027 9.32217 20.5988 9.32217 20.8032ZM20.1138 13.0949C20.1138 13.2994 20.195 13.4954 20.3396 13.64C20.4842 13.7845 20.6802 13.8657 20.8847 13.8657C21.0891 13.8657 21.2852 13.7845 21.4297 13.64C21.5743 13.4954 21.6555 13.2994 21.6555 13.0949C21.6555 12.8905 21.5743 12.6944 21.4297 12.5499C21.2852 12.4053 21.0891 12.3241 20.8847 12.3241C20.6802 12.3241 20.4842 12.4053 20.3396 12.5499C20.195 12.6944 20.1138 12.8905 20.1138 13.0949Z" fill="white"/>
</svg>
