<svg width="29" height="29" viewBox="0 0 29 29" fill="none" xmlns="http://www.w3.org/2000/svg">
<path d="M24.7513 4.12258C23.4525 2.81065 21.9055 1.77045 20.2005 1.06266C18.4954 0.354866 16.6666 -0.00634683 14.8205 8.43903e-05C7.08547 8.43903e-05 0.781302 6.30425 0.781302 14.0393C0.781302 16.5184 1.43297 18.9268 2.6513 21.0518L0.667969 28.3334L8.10547 26.3784C10.1596 27.4976 12.4688 28.0926 14.8205 28.0926C22.5555 28.0926 28.8596 21.7884 28.8596 14.0534C28.8596 10.2993 27.4005 6.77175 24.7513 4.12258ZM14.8205 25.7126C12.7238 25.7126 10.6696 25.1459 8.87047 24.0834L8.44547 23.8284L4.02547 24.9901L5.2013 20.6834L4.91797 20.2443C3.75311 18.3841 3.13458 16.234 3.13297 14.0393C3.13297 7.60758 8.37464 2.36592 14.8063 2.36592C17.923 2.36592 20.8555 3.58425 23.0513 5.79425C24.1386 6.87653 25.0002 8.16386 25.5863 9.5816C26.1723 10.9994 26.4712 12.5193 26.4655 14.0534C26.4938 20.4851 21.2521 25.7126 14.8205 25.7126ZM21.2238 16.9859C20.8696 16.8159 19.1413 15.9659 18.8296 15.8384C18.5038 15.7251 18.2771 15.6684 18.0363 16.0084C17.7955 16.3626 17.1296 17.1559 16.9313 17.3826C16.733 17.6234 16.5205 17.6518 16.1663 17.4676C15.8121 17.2976 14.6788 16.9151 13.3471 15.7251C12.2988 14.7901 11.6046 13.6426 11.3921 13.2884C11.1938 12.9343 11.3638 12.7501 11.548 12.5659C11.7038 12.4101 11.9021 12.1551 12.0721 11.9568C12.2421 11.7584 12.313 11.6026 12.4263 11.3759C12.5396 11.1351 12.483 10.9368 12.398 10.7668C12.313 10.5968 11.6046 8.86842 11.3213 8.16009C11.038 7.48009 10.7405 7.56508 10.528 7.55092H9.84797C9.60713 7.55092 9.2388 7.63592 8.91297 7.99008C8.6013 8.34425 7.69464 9.19425 7.69464 10.9226C7.69464 12.6509 8.95547 14.3226 9.12547 14.5493C9.29547 14.7901 11.6046 18.3318 15.118 19.8476C15.9538 20.2159 16.6055 20.4284 17.1155 20.5843C17.9513 20.8534 18.7163 20.8109 19.3255 20.7259C20.0055 20.6268 21.408 19.8759 21.6913 19.0543C21.9888 18.2326 21.9888 17.5384 21.8896 17.3826C21.7905 17.2268 21.578 17.1559 21.2238 16.9859Z" fill="white"/>
</svg>
