<svg width="56" height="56" viewBox="0 0 56 56" fill="none" xmlns="http://www.w3.org/2000/svg">
<path d="M46.8805 21.4938C46.8258 21.3703 45.5023 18.4344 42.5601 15.4922C38.6398 11.5719 33.6883 9.5 28.2383 9.5C22.7883 9.5 17.8367 11.5719 13.9164 15.4922C10.9742 18.4344 9.64452 21.375 9.59608 21.4938C9.52501 21.6536 9.48828 21.8266 9.48828 22.0016C9.48828 22.1765 9.52501 22.3495 9.59608 22.5094C9.65077 22.6328 10.9742 25.5672 13.9164 28.5094C17.8367 32.4281 22.7883 34.5 28.2383 34.5C33.6883 34.5 38.6398 32.4281 42.5601 28.5094C45.5023 25.5672 46.8258 22.6328 46.8805 22.5094C46.9515 22.3495 46.9883 22.1765 46.9883 22.0016C46.9883 21.8266 46.9515 21.6536 46.8805 21.4938ZM28.2383 32C23.4289 32 19.2273 30.2516 15.7492 26.8047C14.3221 25.3855 13.1079 23.7671 12.1445 22C13.1077 20.2327 14.3219 18.6143 15.7492 17.1953C19.2273 13.7484 23.4289 12 28.2383 12C33.0476 12 37.2492 13.7484 40.7273 17.1953C42.1572 18.614 43.374 20.2324 44.3398 22C43.2133 24.1031 38.3055 32 28.2383 32ZM28.2383 14.5C26.7549 14.5 25.3049 14.9399 24.0715 15.764C22.8381 16.5881 21.8768 17.7594 21.3092 19.1299C20.7415 20.5003 20.593 22.0083 20.8824 23.4632C21.1718 24.918 21.8861 26.2544 22.935 27.3033C23.9839 28.3522 25.3202 29.0665 26.7751 29.3559C28.2299 29.6453 29.7379 29.4968 31.1084 28.9291C32.4788 28.3614 33.6502 27.4001 34.4743 26.1668C35.2984 24.9334 35.7383 23.4834 35.7383 22C35.7362 20.0115 34.9454 18.1051 33.5393 16.699C32.1332 15.2929 30.2268 14.5021 28.2383 14.5ZM28.2383 27C27.2494 27 26.2827 26.7068 25.4604 26.1573C24.6382 25.6079 23.9973 24.827 23.6189 23.9134C23.2404 22.9998 23.1414 21.9945 23.3343 21.0245C23.5273 20.0546 24.0035 19.1637 24.7027 18.4645C25.402 17.7652 26.2929 17.289 27.2628 17.0961C28.2327 16.9031 29.2381 17.0022 30.1517 17.3806C31.0653 17.759 31.8462 18.3999 32.3956 19.2221C32.945 20.0444 33.2383 21.0111 33.2383 22C33.2383 23.3261 32.7115 24.5979 31.7738 25.5355C30.8361 26.4732 29.5643 27 28.2383 27Z" fill="white"/>
<line x1="0.738281" y1="53.5" x2="55.7383" y2="53.5" stroke="white"/>
</svg>
