<svg width="29" height="29" viewBox="0 0 29 29" fill="none" xmlns="http://www.w3.org/2000/svg">
<path d="M8.21667 0H20.1167C24.65 0 28.3333 3.68333 28.3333 8.21667V20.1167C28.3333 22.2959 27.4677 24.3858 25.9267 25.9267C24.3858 27.4677 22.2959 28.3333 20.1167 28.3333H8.21667C3.68333 28.3333 0 24.65 0 20.1167V8.21667C0 6.03747 0.865682 3.94753 2.40661 2.40661C3.94753 0.865682 6.03747 0 8.21667 0ZM7.93333 2.83333C6.58073 2.83333 5.28352 3.37065 4.32709 4.32709C3.37065 5.28352 2.83333 6.58073 2.83333 7.93333V20.4C2.83333 23.2192 5.11417 25.5 7.93333 25.5H20.4C21.7526 25.5 23.0498 24.9627 24.0062 24.0062C24.9627 23.0498 25.5 21.7526 25.5 20.4V7.93333C25.5 5.11417 23.2192 2.83333 20.4 2.83333H7.93333ZM21.6042 4.95833C22.0738 4.95833 22.5242 5.1449 22.8563 5.477C23.1884 5.80909 23.375 6.25951 23.375 6.72917C23.375 7.19882 23.1884 7.64924 22.8563 7.98134C22.5242 8.31343 22.0738 8.5 21.6042 8.5C21.1345 8.5 20.6841 8.31343 20.352 7.98134C20.0199 7.64924 19.8333 7.19882 19.8333 6.72917C19.8333 6.25951 20.0199 5.80909 20.352 5.477C20.6841 5.1449 21.1345 4.95833 21.6042 4.95833ZM14.1667 7.08333C16.0453 7.08333 17.847 7.82961 19.1753 9.15799C20.5037 10.4864 21.25 12.2881 21.25 14.1667C21.25 16.0453 20.5037 17.847 19.1753 19.1753C17.847 20.5037 16.0453 21.25 14.1667 21.25C12.2881 21.25 10.4864 20.5037 9.15799 19.1753C7.82961 17.847 7.08333 16.0453 7.08333 14.1667C7.08333 12.2881 7.82961 10.4864 9.15799 9.15799C10.4864 7.82961 12.2881 7.08333 14.1667 7.08333ZM14.1667 9.91667C13.0395 9.91667 11.9585 10.3644 11.1615 11.1615C10.3644 11.9585 9.91667 13.0395 9.91667 14.1667C9.91667 15.2938 10.3644 16.3748 11.1615 17.1719C11.9585 17.9689 13.0395 18.4167 14.1667 18.4167C15.2938 18.4167 16.3748 17.9689 17.1719 17.1719C17.9689 16.3748 18.4167 15.2938 18.4167 14.1667C18.4167 13.0395 17.9689 11.9585 17.1719 11.1615C16.3748 10.3644 15.2938 9.91667 14.1667 9.91667Z" fill="white"/>
</svg>
