<svg width="32" height="34" viewBox="0 0 32 34" fill="none" xmlns="http://www.w3.org/2000/svg">
<path d="M28.1698 9.17969C28.0482 8.71406 27.7026 8.3625 27.3074 8.25469C26.6067 8.0625 23.2004 7.625 16.0008 7.625C8.80116 7.625 5.39653 8.0625 4.69097 8.25469C4.30059 8.36094 3.955 8.7125 3.83181 9.17969C3.65742 9.84219 3.20144 12.6172 3.20144 17C3.20144 21.3812 3.65742 24.1563 3.83181 24.8219C3.9534 25.2859 4.29898 25.6375 4.69257 25.7437C5.39653 25.9375 8.79956 26.375 15.9992 26.375C23.1988 26.375 26.6051 25.9375 27.309 25.7453C27.6994 25.6391 28.045 25.2875 28.1682 24.8203C28.3442 24.1578 28.7986 21.375 28.7986 17C28.7986 12.625 28.3442 9.84375 28.1698 9.17969ZM31.2688 8.40312C32 11.1875 32 17 32 17C32 17 32 22.8125 31.2688 25.5969C30.8625 27.1359 29.6737 28.3469 28.1682 28.7562C25.4339 29.5 15.9992 29.5 15.9992 29.5C15.9992 29.5 6.57087 29.5 3.83181 28.7562C2.31988 28.3406 1.13274 27.1313 0.731163 25.5969C0 22.8125 0 17 0 17C0 17 0 11.1875 0.731163 8.40312C1.13754 6.86406 2.32628 5.65312 3.83181 5.24375C6.57247 4.5 16.0008 4.5 16.0008 4.5C16.0008 4.5 25.4339 4.5 28.1682 5.24375C29.6785 5.65937 30.8673 6.86875 31.2688 8.40312ZM12.801 22.4687V11.5312L22.4005 17L12.801 22.4687Z" fill="white"/>
</svg>
