<svg width="55" height="49" viewBox="0 0 55 49" fill="none" xmlns="http://www.w3.org/2000/svg">
<path d="M20.0256 4.64351C21.3082 3.64451 22.9856 3.09259 24.6521 3.09259C25.6496 3.09259 26.4559 3.43484 27.0679 3.97905C27.2329 4.12551 27.3793 4.2843 27.5104 4.44772C27.6414 4.2843 27.7879 4.12551 27.9528 3.97905C28.5649 3.43484 29.3712 3.09259 30.3686 3.09259C32.0352 3.09259 33.714 3.64451 34.9936 4.64351C35.9926 5.41897 36.7742 6.49042 37.081 7.78388C37.7285 7.8918 38.3036 8.22172 38.7692 8.65801C39.5092 9.3533 40.0379 10.3585 40.3694 11.3929C40.707 12.4428 40.8751 13.6222 40.8242 14.7553C40.798 15.335 40.7132 15.927 40.5513 16.4928L40.6515 16.539C41.222 16.8073 41.6845 17.2281 42.0313 17.7878C42.6865 18.8438 42.9178 20.3639 42.9178 22.3018C42.9178 24.5295 42.0652 26.0418 40.9707 26.9807C40.4005 27.4697 39.7332 27.8322 39.0127 28.0445C38.7513 29.2492 38.2141 30.3769 37.4433 31.339C36.3287 32.7327 34.5959 33.9105 32.268 33.9105C30.4025 33.9105 28.9333 32.8776 27.9898 31.8909C27.8225 31.7146 27.663 31.5309 27.5119 31.3405C27.3602 31.5305 27.2003 31.7136 27.0324 31.8894C26.089 32.8791 24.6197 33.9105 22.7543 33.9105C20.4249 33.9105 18.692 32.7327 17.579 31.339C16.807 30.3772 16.2687 29.2495 16.0065 28.0445C15.2865 27.8321 14.6197 27.4695 14.0501 26.9807C12.9555 26.0403 12.1045 24.5295 12.1045 22.3018C12.1045 20.3639 12.3357 18.8438 12.9894 17.7878C13.3362 17.2128 13.8535 16.7602 14.4694 16.4928C14.311 15.9262 14.2194 15.3431 14.1965 14.7553C14.1457 13.6222 14.3137 12.4428 14.6513 11.3929C14.9828 10.36 15.51 9.3533 16.2516 8.65801C16.7154 8.20596 17.3029 7.90173 17.9397 7.78388C18.248 6.48888 19.0281 5.41897 20.0256 4.64351ZM21.447 6.4673C20.6052 7.12251 20.1119 7.99509 20.1119 9.00026C20.1118 9.18337 20.0681 9.36383 19.9846 9.52678C19.9011 9.68974 19.7801 9.83052 19.6315 9.93755C19.4829 10.0446 19.311 10.1148 19.13 10.1424C18.949 10.17 18.764 10.1542 18.5903 10.0964C18.3791 10.0255 18.1555 10.0424 17.8349 10.3446C17.4772 10.6791 17.1149 11.285 16.8528 12.099C16.5907 12.9236 16.4738 13.7874 16.5075 14.652C16.546 15.5092 16.7495 16.2214 17.0702 16.7024C17.1233 16.7821 17.1662 16.8681 17.1982 16.9583H18.8662C19.9762 16.9581 21.0451 17.378 21.8582 18.1335C22.6712 18.8891 23.1682 19.9244 23.2492 21.0314C23.9133 21.2964 24.4647 21.784 24.809 22.4107C25.1532 23.0374 25.269 23.7643 25.1364 24.4669C25.0038 25.1696 24.6311 25.8043 24.0821 26.2625C23.5331 26.7206 22.842 26.9737 22.127 26.9785C21.4119 26.9832 20.7175 26.7393 20.1625 26.2885C19.6075 25.8376 19.2264 25.2079 19.0845 24.5071C18.9426 23.8063 19.0487 23.0779 19.3846 22.4467C19.7205 21.8155 20.2654 21.3206 20.9259 21.0468C20.8527 20.553 20.6044 20.1019 20.2263 19.7759C19.8482 19.4499 19.3655 19.2706 18.8662 19.2708H14.8194C14.5881 19.8073 14.417 20.7339 14.417 22.3018C14.417 23.8758 14.989 24.7391 15.5563 25.2263C16.1776 25.7582 16.8605 25.8969 17.0579 25.8969C17.3645 25.8969 17.6586 26.0187 17.8755 26.2356C18.0923 26.4524 18.2141 26.7465 18.2141 27.0532C18.2141 27.7007 18.5718 28.877 19.3858 29.8945C20.169 30.8765 21.2851 31.598 22.7543 31.598C23.7364 31.598 24.6398 31.0461 25.3597 30.2938C25.7082 29.9268 25.9795 29.546 26.1583 29.2377C26.226 29.1224 26.2853 29.0024 26.3356 28.8785L26.3449 28.8569V14.2604H24.9635C24.6952 14.9237 24.2045 15.4731 23.5756 15.8143C22.9466 16.1556 22.2186 16.2674 21.5162 16.1307C20.8139 15.9941 20.1809 15.6173 19.7258 15.0652C19.2707 14.513 19.0219 13.8197 19.0219 13.1042C19.0219 12.3886 19.2707 11.6954 19.7258 11.1432C20.1809 10.591 20.8139 10.2143 21.5162 10.0776C22.2186 9.94093 22.9466 10.0528 23.5756 10.394C24.2045 10.7352 24.6952 11.2846 24.9635 11.9479H26.3449V8.03517L26.3402 7.9473C26.3139 7.47249 26.2204 7.0038 26.0627 6.55517C25.924 6.18517 25.7436 5.89688 25.5309 5.70726C25.3412 5.53767 25.0792 5.40509 24.6521 5.40509C23.4712 5.40509 22.3011 5.80284 21.4454 6.46884L21.447 6.4673ZM28.6774 26.2083V28.8569L28.6851 28.8785C28.716 28.9602 28.7745 29.082 28.864 29.2377C29.0412 29.546 29.3126 29.9268 29.6625 30.2938C30.3809 31.0461 31.2859 31.598 32.268 31.598C33.7356 31.598 34.8518 30.8765 35.6365 29.8945C36.4489 28.877 36.8082 27.6991 36.8082 27.0532C36.8082 26.7465 36.93 26.4524 37.1468 26.2356C37.3637 26.0187 37.6578 25.8969 37.9644 25.8969C38.1617 25.8969 38.8432 25.7582 39.466 25.2263C40.0318 24.7391 40.6037 23.8758 40.6037 22.3018C40.6037 20.4394 40.3602 19.4805 40.0657 19.0072C39.9735 18.8435 39.8337 18.7118 39.6649 18.6295C39.5092 18.5555 39.2748 18.5 38.9125 18.5C38.7033 18.5 38.4979 18.4432 38.3184 18.3356C38.1389 18.2281 37.9919 18.0738 37.8932 17.8893C37.7944 17.7048 37.7476 17.497 37.7577 17.2879C37.7678 17.0789 37.8345 16.8765 37.9505 16.7024C38.2712 16.2199 38.4747 15.5092 38.5148 14.652C38.5479 13.7873 38.4306 12.9235 38.1679 12.099C37.9058 11.285 37.5435 10.6807 37.1874 10.3446C36.8652 10.0424 36.6417 10.0255 36.432 10.0964C36.2582 10.1545 36.073 10.1706 35.8918 10.1431C35.7106 10.1156 35.5385 10.0455 35.3897 9.93839C35.2409 9.83133 35.1197 9.69043 35.0361 9.52732C34.9525 9.3642 34.9089 9.18355 34.9088 9.00026C34.9088 7.99509 34.4155 7.12251 33.5737 6.4673C32.7212 5.80284 31.5495 5.40355 30.3671 5.40355C29.9416 5.40355 29.681 5.53767 29.4899 5.70572C29.2485 5.94242 29.0667 6.23302 28.9595 6.55363C28.7866 7.02915 28.6914 7.52939 28.6774 8.03517V23.8958H29.6579C30.2099 23.8958 30.7393 23.6766 31.1296 23.2863C31.5199 22.8959 31.7392 22.3666 31.7392 21.8146V19.0473C31.0758 18.779 30.5265 18.2883 30.1853 17.6593C29.844 17.0304 29.7322 16.3024 29.8689 15.6C30.0055 14.8976 30.3822 14.2647 30.9344 13.8096C31.4866 13.3545 32.1799 13.1056 32.8954 13.1056C33.611 13.1056 34.3042 13.3545 34.8564 13.8096C35.4086 14.2647 35.7853 14.8976 35.922 15.6C36.0586 16.3024 35.9468 17.0304 35.6056 17.6593C35.2643 18.2883 34.715 18.779 34.0517 19.0473V21.8146C34.0517 22.9799 33.5887 24.0975 32.7648 24.9214C31.9408 25.7454 30.8232 26.2083 29.6579 26.2083H28.6774ZM22.1037 12.3333C21.8993 12.3333 21.7032 12.4146 21.5587 12.5591C21.4141 12.7037 21.3329 12.8997 21.3329 13.1042C21.3329 13.3086 21.4141 13.5047 21.5587 13.6492C21.7032 13.7938 21.8993 13.875 22.1037 13.875C22.3082 13.875 22.5042 13.7938 22.6488 13.6492C22.7934 13.5047 22.8746 13.3086 22.8746 13.1042C22.8746 12.8997 22.7934 12.7037 22.6488 12.5591C22.5042 12.4146 22.3082 12.3333 22.1037 12.3333ZM21.3329 23.8958C21.3329 24.1003 21.4141 24.2963 21.5587 24.4409C21.7032 24.5855 21.8993 24.6667 22.1037 24.6667C22.3082 24.6667 22.5042 24.5855 22.6488 24.4409C22.7934 24.2963 22.8746 24.1003 22.8746 23.8958C22.8746 23.6914 22.7934 23.4953 22.6488 23.3508C22.5042 23.2062 22.3082 23.125 22.1037 23.125C21.8993 23.125 21.7032 23.2062 21.5587 23.3508C21.4141 23.4953 21.3329 23.6914 21.3329 23.8958ZM32.1246 16.1875C32.1246 16.3919 32.2058 16.588 32.3503 16.7326C32.4949 16.8771 32.691 16.9583 32.8954 16.9583C33.0998 16.9583 33.2959 16.8771 33.4405 16.7326C33.585 16.588 33.6662 16.3919 33.6662 16.1875C33.6662 15.9831 33.585 15.787 33.4405 15.6424C33.2959 15.4979 33.0998 15.4167 32.8954 15.4167C32.691 15.4167 32.4949 15.4979 32.3503 15.6424C32.2058 15.787 32.1246 15.9831 32.1246 16.1875Z" fill="white"/>
<line y1="48.5" x2="55" y2="48.5" stroke="white"/>
</svg>
