<svg width="26" height="25" viewBox="0 0 26 25" fill="none" xmlns="http://www.w3.org/2000/svg">
<path d="M20.5548 15.5564C20.2311 15.8701 20.0823 16.3239 20.1561 16.7689L21.2673 22.9189C21.3611 23.4401 21.1411 23.9676 20.7048 24.2689C20.2773 24.5814 19.7086 24.6189 19.2423 24.3689L13.7061 21.4814C13.5136 21.3789 13.2998 21.3239 13.0811 21.3176H12.7423C12.6248 21.3351 12.5098 21.3726 12.4048 21.4301L6.86734 24.3314C6.59359 24.4689 6.28359 24.5176 5.97984 24.4689C5.23984 24.3289 4.74609 23.6239 4.86734 22.8801L5.97984 16.7301C6.05359 16.2814 5.90484 15.8251 5.58109 15.5064L1.06734 11.1314C0.689845 10.7651 0.558595 10.2151 0.731095 9.71887C0.898595 9.22387 1.32609 8.86262 1.84234 8.78137L8.05484 7.88012C8.52734 7.83137 8.94234 7.54387 9.15484 7.11887L11.8923 1.50637C11.9573 1.38137 12.0411 1.26637 12.1423 1.16887L12.2548 1.08137C12.3136 1.01637 12.3811 0.962622 12.4561 0.918872L12.5923 0.868872L12.8048 0.781372H13.3311C13.8011 0.830122 14.2148 1.11137 14.4311 1.53137L17.2048 7.11887C17.4048 7.52762 17.7936 7.81137 18.2423 7.88012L24.4548 8.78137C24.9798 8.85637 25.4186 9.21887 25.5923 9.71887C25.7561 10.2201 25.6148 10.7701 25.2298 11.1314L20.5548 15.5564Z" fill="white"/>
</svg>
