<svg width="25" height="25" viewBox="0 0 25 25" fill="none" xmlns="http://www.w3.org/2000/svg">
<path d="M6.20912 2.07166C6.17777 2.07138 6.14685 2.07872 6.11913 2.09301C6.09141 2.10731 6.06777 2.12811 6.05034 2.15355C6.0329 2.17899 6.02223 2.20826 6.01927 2.23873C6.01631 2.2692 6.02116 2.29991 6.03339 2.32809L6.14204 2.57853L8.06464 6.95538C8.0777 6.98515 8.09857 7.01104 8.12513 7.03044C8.15169 7.04984 8.18302 7.06207 8.21595 7.06591C8.24889 7.06974 8.28229 7.06504 8.31277 7.05228C8.34326 7.03951 8.36977 7.01914 8.38964 6.9932L11.9382 2.36684C11.9592 2.33943 11.9721 2.30684 11.9752 2.27271C11.9784 2.23859 11.9717 2.20429 11.956 2.17364C11.9403 2.143 11.9162 2.11723 11.8864 2.09922C11.8565 2.0812 11.8221 2.07166 11.787 2.07166H6.20912ZM20.296 3.27357L18.3461 7.71822C18.3338 7.74628 18.3288 7.77687 18.3317 7.80726C18.3345 7.83764 18.345 7.86687 18.3622 7.89232C18.3794 7.91778 18.4028 7.93867 18.4304 7.95311C18.4579 7.96756 18.4886 7.97512 18.5199 7.97511H23.291C23.3246 7.97513 23.3577 7.96635 23.3868 7.94968C23.4158 7.93302 23.4398 7.90908 23.4562 7.88034C23.4725 7.85159 23.4807 7.8191 23.4799 7.78622C23.4791 7.75333 23.4693 7.72126 23.4516 7.69332L20.63 3.24912C20.6118 3.22051 20.5859 3.19732 20.5551 3.18207C20.5243 3.16682 20.4899 3.16008 20.4555 3.1626C20.421 3.16512 20.388 3.17679 20.3599 3.19636C20.3318 3.21592 20.3097 3.24262 20.296 3.27357ZM4.47453 3.25097L1.65393 7.69332C1.63616 7.72126 1.62636 7.75333 1.62556 7.78622C1.62475 7.8191 1.63296 7.85159 1.64935 7.88034C1.66573 7.90908 1.68968 7.93302 1.71873 7.94968C1.74777 7.96635 1.78085 7.97513 1.81454 7.97511H6.58561C6.61688 7.97508 6.64765 7.96747 6.67516 7.95296C6.70267 7.93846 6.72607 7.91751 6.74325 7.892C6.76044 7.8665 6.77087 7.83723 6.77361 7.80682C6.77635 7.77641 6.77132 7.74581 6.75897 7.71776L4.8052 3.27541C4.79122 3.24524 4.76919 3.21929 4.7414 3.20029C4.71362 3.1813 4.68111 3.16996 4.64729 3.16745C4.61346 3.16495 4.57958 3.17139 4.54918 3.18608C4.51878 3.20078 4.493 3.22319 4.47453 3.25097ZM19.0367 2.07166H13.1106C13.0935 2.07156 13.0767 2.07612 13.0622 2.08484C13.0476 2.09356 13.0358 2.1061 13.0281 2.12102C13.0205 2.13594 13.0172 2.15266 13.0188 2.16929C13.0203 2.18591 13.0266 2.20178 13.0369 2.2151L16.8122 7.12511C16.8219 7.13772 16.8347 7.14763 16.8495 7.15383C16.8644 7.16004 16.8806 7.16232 16.8966 7.16045C16.9126 7.15858 16.9278 7.15262 16.9407 7.14318C16.9536 7.13373 16.9637 7.12114 16.97 7.10666L18.9578 2.57899L19.1184 2.19434C19.1241 2.18114 19.1264 2.1668 19.1251 2.15254C19.1238 2.13828 19.1191 2.12453 19.1112 2.11247C19.1033 2.10041 19.0925 2.0904 19.0798 2.08329C19.067 2.07618 19.0527 2.07219 19.0381 2.07166H19.0367ZM11.7492 21.2579L7.52471 9.56674C7.5123 9.53279 7.48942 9.50343 7.45922 9.4827C7.42902 9.46196 7.39298 9.45088 7.35606 9.45097H1.6733C1.64038 9.45088 1.6081 9.45982 1.58013 9.47677C1.55216 9.49372 1.52962 9.518 1.5151 9.54684C1.50058 9.57569 1.49464 9.60793 1.49797 9.63991C1.5013 9.67188 1.51377 9.7023 1.53395 9.7277L11.7374 22.6327C11.772 22.6764 11.8212 22.7067 11.8765 22.7183C11.9318 22.7299 11.9894 22.7219 12.0393 22.6959C12.0894 22.6702 12.1284 22.6277 12.1491 22.5762C12.1698 22.5247 12.1709 22.4677 12.1522 22.4155L11.7492 21.2579ZM23.4313 9.45097H17.7485C17.7118 9.45097 17.6759 9.4621 17.646 9.48284C17.616 9.50358 17.5934 9.5329 17.5813 9.56674L12.9425 22.3957C12.923 22.4495 12.9238 22.5084 12.9447 22.5617C12.9657 22.6151 13.0054 22.6594 13.0568 22.6867C13.1082 22.7139 13.1678 22.7223 13.225 22.7106C13.2821 22.6989 13.3332 22.6677 13.369 22.6226L23.5706 9.7277C23.5908 9.7023 23.6032 9.67188 23.6066 9.63991C23.6099 9.60793 23.604 9.57569 23.5895 9.54684C23.5749 9.518 23.5524 9.49372 23.5244 9.47677C23.4965 9.45982 23.4642 9.45088 23.4313 9.45097ZM12.7034 4.23611L15.3488 7.67994C15.3698 7.70735 15.3827 7.73994 15.3858 7.77406C15.389 7.80818 15.3823 7.84249 15.3666 7.87313C15.3509 7.90378 15.3268 7.92955 15.297 7.94756C15.2671 7.96557 15.2327 7.97511 15.1976 7.97511H9.90693C9.87184 7.97511 9.83744 7.96557 9.80759 7.94756C9.77774 7.92955 9.75362 7.90378 9.73793 7.87313C9.72223 7.84249 9.71559 7.80818 9.71874 7.77406C9.72189 7.73994 9.73471 7.70735 9.75577 7.67994L12.4011 4.23611C12.4187 4.2132 12.4415 4.1946 12.4678 4.18179C12.494 4.16898 12.5229 4.16231 12.5523 4.16231C12.5816 4.16231 12.6105 4.16898 12.6368 4.18179C12.663 4.1946 12.6858 4.2132 12.7034 4.23611ZM12.3728 18.5478L9.17474 9.6968C9.1647 9.66899 9.16163 9.63923 9.16579 9.61002C9.16996 9.58081 9.18123 9.553 9.19868 9.52893C9.21612 9.50485 9.23922 9.48521 9.26604 9.47164C9.29286 9.45808 9.32262 9.45099 9.35283 9.45097H15.7517C15.7819 9.45099 15.8117 9.45808 15.8385 9.47164C15.8653 9.48521 15.8884 9.50485 15.9059 9.52893C15.9233 9.553 15.9346 9.58081 15.9388 9.61002C15.9429 9.63923 15.9399 9.66899 15.9298 9.6968L12.7304 18.5478C12.7173 18.5838 12.6932 18.6149 12.6613 18.6368C12.6294 18.6588 12.5913 18.6707 12.5523 18.6707C12.5132 18.6707 12.4751 18.6588 12.4433 18.6368C12.4114 18.6149 12.3872 18.5838 12.3742 18.5478H12.3728Z" fill="white"/>
</svg>
